<svg width="100" height="100" viewBox="0 0 100 100" fill="none" xmlns="http://www.w3.org/2000/svg">
<rect width="100" height="100" rx="25" fill="#949494"/>
<g clip-path="url(#clip0_56_19)">
<path d="M66.667 36.6667H58.3336V33.3333C58.3336 32.4493 57.9824 31.6014 57.3573 30.9763C56.7322 30.3512 55.8843 30 55.0003 30H45.0003C44.1162 30 43.2684 30.3512 42.6433 30.9763C42.0181 31.6014 41.667 32.4493 41.667 33.3333V36.6667H33.3336V40H36.667V65C36.667 66.3261 37.1937 67.5979 38.1314 68.5355C39.0691 69.4732 40.3409 70 41.667 70H58.3336C59.6597 70 60.9315 69.4732 61.8692 68.5355C62.8068 67.5979 63.3336 66.3261 63.3336 65V40H66.667V36.6667ZM45.0003 33.3333H55.0003V36.6667H45.0003V33.3333ZM60.0003 65C60.0003 65.442 59.8247 65.866 59.5121 66.1785C59.1996 66.4911 58.7756 66.6667 58.3336 66.6667H41.667C41.2249 66.6667 40.801 66.4911 40.4884 66.1785C40.1759 65.866 40.0003 65.442 40.0003 65V40H60.0003V65Z" fill="#B42323"/>
<path d="M48.3333 46.6655H45V59.9988H48.3333V46.6655Z" fill="#B42323"/>
<path d="M55.0006 46.6655H51.6672V59.9988H55.0006V46.6655Z" fill="#B42323"/>
</g>
<defs>
<clipPath id="clip0_56_19">
<rect width="40" height="40" fill="white" transform="translate(30 30)"/>
</clipPath>
</defs>
</svg>
