<svg width="100" height="100" viewBox="0 0 100 100" fill="none" xmlns="http://www.w3.org/2000/svg">
<rect width="100" height="100" rx="25" fill="#949494"/>
<g clip-path="url(#clip0_5_152)">
<path d="M68.2333 31.7646C67.1003 30.6332 65.5645 29.9978 63.9633 29.9978C62.3621 29.9978 60.8264 30.6332 59.6933 31.7646L30 61.4579V69.9979H38.54L68.2333 40.3046C69.3643 39.1713 69.9994 37.6356 69.9994 36.0346C69.9994 34.4335 69.3643 32.8979 68.2333 31.7646ZM37.1667 66.6646H33.3333V62.8312L55.5167 40.6646L59.35 44.4979L37.1667 66.6646ZM65.8767 37.9479L61.6983 42.1262L57.8733 38.2929L62.05 34.1212C62.5583 33.6129 63.2478 33.3273 63.9667 33.3273C64.6856 33.3273 65.375 33.6129 65.8833 34.1212C66.3917 34.6296 66.6772 35.319 66.6772 36.0379C66.6772 36.7568 66.3917 37.4462 65.8833 37.9546L65.8767 37.9479Z" fill="#30791E"/>
</g>
<defs>
<clipPath id="clip0_5_152">
<rect width="40" height="40" fill="white" transform="translate(30 30)"/>
</clipPath>
</defs>
</svg>
