<svg width="100" height="100" viewBox="0 0 100 100" fill="none" xmlns="http://www.w3.org/2000/svg">
<rect width="100" height="100" rx="25" fill="#949494"/>
<g clip-path="url(#clip0_5_99)">
<path d="M68.525 31.4766C67.5654 30.5593 66.2891 30.0474 64.9617 30.0474C63.6342 30.0474 62.3579 30.5593 61.3983 31.4766L55.72 37.1549C54.6589 38.2255 53.2205 38.8376 51.7133 38.8597C50.2061 38.8818 48.7503 38.3123 47.6583 37.2732L45.3333 39.6666L48.7083 43.0416L33.375 58.3749C32.4828 59.2575 31.9035 60.4075 31.7251 61.6497C31.5467 62.892 31.779 64.1585 32.3867 65.2565L30 67.6432L32.3567 69.9999L34.7433 67.6132C35.8414 68.2209 37.1079 68.4532 38.3501 68.2748C39.5924 68.0964 40.7423 67.517 41.625 66.6249L56.9583 51.2916L60.3333 54.6666L62.7233 52.3449C61.6839 51.2531 61.1141 49.7972 61.1362 48.2899C61.1583 46.7826 61.7706 45.3441 62.8417 44.2832L68.52 38.6049C69.4648 37.66 69.9955 36.3786 69.9955 35.0424C69.9955 33.7062 69.4648 32.4248 68.52 31.4799L68.525 31.4766ZM39.2667 64.2682C38.7904 64.7227 38.1574 64.9763 37.4992 64.9763C36.8409 64.9763 36.2079 64.7227 35.7317 64.2682C35.263 63.7994 34.9997 63.1636 34.9997 62.5007C34.9997 61.8378 35.263 61.202 35.7317 60.7332L51.065 45.3999L54.6 48.9349L39.2667 64.2682ZM66.1667 36.2449L60.4883 41.9232C58.9931 43.4073 58.0589 45.3641 57.845 47.4599L52.54 42.1549C54.6358 41.941 56.5926 41.0068 58.0767 39.5116L63.7567 33.8332C64.0809 33.5226 64.5126 33.3491 64.9617 33.3491C65.4107 33.3491 65.8424 33.5226 66.1667 33.8332C66.3252 33.9915 66.4511 34.1794 66.5369 34.3863C66.6228 34.5932 66.6669 34.8151 66.6669 35.0391C66.6669 35.2631 66.6228 35.4849 66.5369 35.6918C66.4511 35.8987 66.3252 36.0867 66.1667 36.2449Z" fill="#374957"/>
</g>
<defs>
<clipPath id="clip0_5_99">
<rect width="40" height="40" fill="white" transform="translate(30 30)"/>
</clipPath>
</defs>
</svg>
