<svg width="60" height="60" viewBox="0 0 60 60" fill="none" xmlns="http://www.w3.org/2000/svg">
<g clip-path="url(#clip0_65_36)">
<path d="M24.6956 45.305C25.3921 46.002 26.2191 46.5548 27.1293 46.932C28.0396 47.3092 29.0152 47.5034 30.0006 47.5034C30.9859 47.5034 31.9615 47.3092 32.8718 46.932C33.7821 46.5548 34.6091 46.002 35.3056 45.305L43.3331 37.2775C43.7635 36.8015 43.9943 36.1782 43.9779 35.5366C43.9614 34.8951 43.6988 34.2845 43.2446 33.8312C42.7903 33.3779 42.1791 33.1166 41.5375 33.1015C40.896 33.0864 40.2732 33.3186 39.7981 33.75L32.4831 41.0675L32.5006 2.5C32.5006 1.83696 32.2372 1.20107 31.7683 0.732233C31.2995 0.263392 30.6636 0 30.0006 0V0C29.3375 0 28.7016 0.263392 28.2328 0.732233C27.764 1.20107 27.5006 1.83696 27.5006 2.5L27.4781 41.02L20.2031 33.75C19.734 33.2812 19.0979 33.018 18.4347 33.0182C17.7715 33.0185 17.1356 33.2822 16.6668 33.7513C16.198 34.2204 15.9348 34.8565 15.9351 35.5196C15.9353 36.1828 16.199 36.8187 16.6681 37.2875L24.6956 45.305Z" fill="black"/>
<path d="M57.5 39.9998C56.837 39.9998 56.2011 40.2631 55.7322 40.732C55.2634 41.2008 55 41.8367 55 42.4998V52.4997C55 53.1628 54.7366 53.7987 54.2678 54.2675C53.7989 54.7363 53.163 54.9997 52.5 54.9997H7.5C6.83696 54.9997 6.20107 54.7363 5.73223 54.2675C5.26339 53.7987 5 53.1628 5 52.4997V42.4998C5 41.8367 4.73661 41.2008 4.26777 40.732C3.79893 40.2631 3.16304 39.9998 2.5 39.9998V39.9998C1.83696 39.9998 1.20107 40.2631 0.732233 40.732C0.263392 41.2008 0 41.8367 0 42.4998L0 52.4997C0 54.4889 0.790176 56.3965 2.1967 57.803C3.60322 59.2095 5.51088 59.9997 7.5 59.9997H52.5C54.4891 59.9997 56.3968 59.2095 57.8033 57.803C59.2098 56.3965 60 54.4889 60 52.4997V42.4998C60 41.8367 59.7366 41.2008 59.2678 40.732C58.7989 40.2631 58.163 39.9998 57.5 39.9998Z" fill="black"/>
</g>
<defs>
<clipPath id="clip0_65_36">
<rect width="60" height="60" fill="white"/>
</clipPath>
</defs>
</svg>
